<svg xmlns="http://www.w3.org/2000/svg" xmlns:xlink="http://www.w3.org/1999/xlink" version="1.1" enable-background="new 0 0 1000 1000" xml:space="preserve" width="1000" height="1000"><rect id="backgroundrect" width="100%" height="100%" x="0" y="0" fill="none" stroke="none"/>
<metadata> Svg Vector Icons : http://www.onlinewebfonts.com/icon </metadata>

<g class="currentLayer" style=""><title>Layer 1</title><g id="svg_1" class="selected" fill-opacity="1" fill="#8fcfa1"><g id="svg_2" fill="#8fcfa1"><g id="svg_3" fill="#8fcfa1"><path d="M831.5,498.1l132.6-129.3c5.1-4.9,6.9-12.3,4.7-19c-2.2-6.7-8-11.6-14.9-12.6l-195.6-28.4L789,111.7c1.1-7-1.8-13.9-7.6-18c-5.7-4-13.2-4.4-19.5-1.1l-164.8,89.9l-80.5-163c-6.3-12.7-27-12.7-33.2,0l-84.5,171.2l-177.5-89.8c-6.3-3.2-13.8-2.5-19.4,1.7c-5.6,4.2-8.4,11.3-7.1,18.2l35.5,189.6L46.1,337.3c-6.9,1-12.7,5.9-14.9,12.6c-2.2,6.7-0.3,14,4.7,19l135.6,132.2L35.6,637.5c-4.9,5-6.7,12.3-4.4,19c2.3,6.6,8.1,11.4,15.1,12.4l189,24.5L202.8,883c-1.2,6.9,1.7,13.9,7.4,18.1c5.7,4.1,13.2,4.7,19.4,1.4l172.7-90.7l86.2,168.2c3.2,6.1,9.6,10.1,16.5,10.1c0.1,0,0.2,0,0.3,0c7.1-0.1,13.4-4.2,16.5-10.6l78.9-166.1l169.7,89.2c6.2,3.3,13.8,2.8,19.5-1.4c5.7-4.1,8.5-11.1,7.4-18.1l-33.9-197.2l190.8-30.7c7-1.2,12.7-6.1,14.7-12.8c2.1-6.7,0.2-14-4.9-18.9L831.5,498.1z M709.9,633.5c-4.3,0.6-8.2,3-10.7,6.5c-2.6,3.6-3.6,8-2.9,12.2l26.9,157l-134.8-70.9c-4-2-8.4-2.4-12.7-1c-4.1,1.3-7.6,4.4-9.5,8.4l-62.3,131.4l-68.2-132.9c-2-3.9-5.4-6.8-9.6-8.1c-1.5-0.5-3.3-0.7-4.9-0.7c-2.5,0-5.2,0.6-7.5,1.8l-137,72l25.9-150.7c0.8-4.4-0.2-8.8-2.9-12.4c-2.6-3.6-6.6-5.9-11-6.4l-150.1-19.5L246,512c3-3,4.8-7.2,4.8-11.6c-0.1-4.3-1.8-8.4-4.9-11.5L138.6,384.4l146-21.2c4.4-0.6,8.3-3,10.9-6.6c2.6-3.5,3.7-8,2.8-12.4l-28.2-150.8L411.1,265c3.9,1.9,8.4,2.3,12.5,0.9c4.1-1.4,7.5-4.4,9.4-8.2L500,122.1l63.5,128.7c2,4,5.5,7,9.7,8.3c4.2,1.3,8.8,0.9,12.7-1.2l130.7-71.3l-24.4,156.7c-0.6,4.3,0.5,8.7,3,12.1c2.5,3.6,6.4,5.8,10.8,6.5l155.4,22.6l-105,102.4c-3.2,3-5,7.3-5,11.8c0.1,4.4,1.9,8.6,5.1,11.7l104.6,98.9L709.9,633.5z" id="svg_4" fill="#8fcfa1"/><path d="M724.6,428.5l-96.7-14.1c-2.6-0.4-5-1.8-6.6-4c-1.5-2.2-2.2-4.9-1.8-7.5l15.2-97.4l-81.2,44.3c-2.5,1.3-5.3,1.5-7.9,0.7c-2.6-0.8-4.8-2.7-6-5.1L500,265.4l-41.6,84.2c-1.3,2.4-3.3,4.3-6,5.1c-2.5,0.9-5.3,0.6-7.7-0.6l-87.6-44.4l17.5,93.7c0.5,2.7-0.1,5.5-1.6,7.7c-1.7,2.2-4,3.7-6.8,4.1l-90.7,13.2l66.6,65c1.9,1.9,3.1,4.5,3.1,7.2c0,2.7-1.1,5.3-2.9,7.2L275.3,575l93.2,12.1c2.8,0.3,5.2,1.8,6.9,4c1.6,2.2,2.4,5,1.8,7.7l-16.1,93.6l85.2-44.7c1.4-0.8,3-1.2,4.7-1.2c1.1,0,2.1,0.1,3,0.5c2.6,0.9,4.6,2.6,6,5l42.3,82.6l38.8-81.7c1.1-2.5,3.3-4.4,5.9-5.2c2.6-0.9,5.5-0.7,7.9,0.6l83.8,44l-16.7-97.5c-0.4-2.6,0.2-5.3,1.8-7.5c1.4-2.2,3.8-3.7,6.5-4.1l94-15.1l-65.1-61.5c-1.9-1.9-3.1-4.5-3.1-7.2c0-2.7,1.1-5.4,3-7.3L724.6,428.5z" id="svg_5" fill="#8fcfa1"/></g></g><g id="svg_6" fill="#8fcfa1"/><g id="svg_7" fill="#8fcfa1"/><g id="svg_8" fill="#8fcfa1"/><g id="svg_9" fill="#8fcfa1"/><g id="svg_10" fill="#8fcfa1"/><g id="svg_11" fill="#8fcfa1"/><g id="svg_12" fill="#8fcfa1"/><g id="svg_13" fill="#8fcfa1"/><g id="svg_14" fill="#8fcfa1"/><g id="svg_15" fill="#8fcfa1"/><g id="svg_16" fill="#8fcfa1"/><g id="svg_17" fill="#8fcfa1"/><g id="svg_18" fill="#8fcfa1"/><g id="svg_19" fill="#8fcfa1"/><g id="svg_20" fill="#8fcfa1"/></g></g></svg>