<?xml version='1.0' encoding='iso-8859-1'?>
<!DOCTYPE svg PUBLIC '-//W3C//DTD SVG 1.1//EN' 'http://www.w3.org/Graphics/SVG/1.1/DTD/svg11.dtd'>
<svg version="1.1" xmlns="http://www.w3.org/2000/svg" viewBox="0 0 512 512" xmlns:xlink="http://www.w3.org/1999/xlink" enable-background="new 0 0 512 512">
  <g>
    <circle cx="236" cy="376.999" r="1"/>
  </g>
  <g>
    <path d="m246.253,387.898c-0.436,0-0.836-0.287-0.961-0.726-0.281-0.983-0.54-1.857-0.777-2.661-1.553-5.246-2.261-7.641-2.261-17.614 0-0.552 0.448-1 1-1 0.552,0 1,0.448 1,1 0,9.683 0.638,11.838 2.179,17.046 0.239,0.809 0.5,1.689 0.782,2.679 0.152,0.531-0.156,1.084-0.687,1.236-0.091,0.027-0.184,0.04-0.275,0.04z"/>
  </g>
  <g>
    <path d="m226.079,387.898c-0.091,0-0.183-0.013-0.275-0.039-0.531-0.151-0.839-0.705-0.687-1.236 0.282-0.99 0.543-1.87 0.782-2.679 1.541-5.208 2.179-7.363 2.179-17.046 0-0.552 0.448-1 1-1 0.552,0 1,0.448 1,1 0,9.973-0.708,12.367-2.261,17.614-0.238,0.804-0.497,1.678-0.777,2.661-0.125,0.438-0.526,0.725-0.961,0.725z"/>
  </g>
  <g>
    <path d="m248.079,387.897h-24c-0.552,0-1-0.448-1-1 0-0.552 0.448-1 1-1h24c0.552,0 1,0.448 1,1 0,0.552-0.448,1-1,1z"/>
  </g>
  <g>
    <path d="m243.254,367.897h-14.175c-0.552,0-1-0.448-1-1 0-0.552 0.448-1 1-1h14.175c0.552,0 1,0.448 1,1 0,0.552-0.448,1-1,1z"/>
  </g>
  <g>
    <path d="m239,376.998c0,0.023-0.006,0.044-0.007,0.066h1.9c-0.028-1.773-1.012-3.312-2.461-4.125l-.863,1.514c0.856,0.527 1.431,1.465 1.431,2.545z"/>
    <path d="m240.894,378.064h-1.9c-0.269,0-0.527-0.108-0.715-0.301-0.188-0.192-0.29-0.452-0.285-0.721 0.001-0.023 0.003-0.057 0.006-0.09-0.015-0.674-0.37-1.288-0.955-1.648-0.459-0.283-0.611-0.879-0.344-1.347l.864-1.514c0.272-0.477 0.878-0.646 1.358-0.377 1.8,1.01 2.938,2.919 2.972,4.981 0.004,0.268-0.099,0.526-0.287,0.718-0.189,0.192-0.446,0.299-0.714,0.299z"/>
  </g>
  <g>
    <path d="m236,380c-0.506,0-0.975-0.137-1.393-0.357l-.947,1.662c0.712,0.414 1.536,0.656 2.419,0.656s1.707-0.241 2.419-0.656l-.985-1.728c-0.446,0.262-0.958,0.423-1.513,0.423z"/>
    <path d="m236.079,382.96c-1.022,0-2.033-0.274-2.922-0.792-0.474-0.276-0.637-0.883-0.365-1.36l.948-1.662c0.267-0.468 0.857-0.642 1.336-0.389 0.64,0.339 1.32,0.316 1.931-0.043 0.23-0.135 0.507-0.172 0.765-0.104 0.259,0.069 0.479,0.238 0.611,0.471l.985,1.728c0.272,0.477 0.109,1.083-0.365,1.359-0.891,0.518-1.901,0.792-2.924,0.792z"/>
  </g>
  <g>
    <path d="m233,376.998c0-1.129 0.629-2.1 1.551-2.611l-.826-1.448c-1.449,0.813-2.433,2.352-2.461,4.125h1.743c-0.001-0.022-0.007-0.043-0.007-0.066z"/>
    <path d="m233.007,378.064h-1.743c-0.268,0-0.525-0.107-0.713-0.298-0.188-0.191-0.292-0.45-0.287-0.718 0.033-2.062 1.172-3.971 2.972-4.981 0.48-0.27 1.086-0.1 1.358,0.377l.826,1.448c0.132,0.232 0.167,0.508 0.094,0.765-0.072,0.257-0.244,0.475-0.478,0.605-0.625,0.347-1.019,0.993-1.035,1.692 0.003,0.032 0.005,0.066 0.006,0.088 0.005,0.269-0.097,0.529-0.285,0.721-0.188,0.193-0.446,0.301-0.715,0.301z"/>
  </g>
  <g>
    <path d="m238.743,337.632c0,8.836 7.141,16.012 16,16.012 8.848,0 16-7.176 16-16.012 0-8.836-7.152-15.988-16-15.988-8.86-0.001-16,7.152-16,15.988z"/>
    <path d="m447.997,480h-17.172c-3.219-16-6.316-21.652-9.156-31.261-24.656-83.327-34.867-117.811-34.867-272.739 0-8.836-7.164-16-16-16h-226.8c-8.836,0-16,7.163-16,15.998 0,154.927-10.211,189.414-34.867,272.741-2.84,9.609-5.937,15.26-9.156,31.26h-19.976c-8.836,0-16,7.164-16,16 0,8.836 7.164,16 16,16h31.953c0.02,0 0.035,0 0.055,0 0.016,0 0.031,0 0.047,0h322.69c0.016,0 0.031,0 0.047,0 0.02,0 0.035,0 0.055,0h29.148c8.836,0 16-7.164 16-16-0.001-8.835-7.165-15.999-16.001-15.999zm-324.175-22.181c23.973-81.003 35.336-121.819 36.105-265.819h194.95c0.77,144 12.133,184.816 36.105,265.818 2.07,6.996 4.26,22.182 6.531,22.182h-280.222c2.272,0 4.461-15.185 6.531-22.181z"/>
    <path d="m176.001,143.998c8.836,0 16-7.164 16-16s-7.164-16-16-16c-8.82,0-16-7.18-16-16-0.008-11.609 13.273-20.164 24.117-13.648 4.805,2.875 10.742,3.008 15.687,0.43 4.945-2.609 8.172-7.609 8.508-13.187 1.282-21.078 18.711-37.593 39.687-37.593 18.054,0 33.882,12.297 38.499,29.906 1.398,5.344 5.461,9.586 10.734,11.226 5.273,1.648 11.023,0.438 15.203-3.172 3.148-2.719 8.398-5.961 15.562-5.961 13.234,0 24,10.766 24,24 0,13.234-10.765,24-24,24-8.836,0-16,7.164-16,16s7.164,16 16,16c30.874,0 55.999-25.125 55.999-55.999 0-30.874-25.125-55.999-55.999-55.999-6.266,0-12.461,1.086-18.336,3.172-12.717-21.392-35.936-35.173-61.662-35.173-31.085,0-57.859,20.031-67.718,48.202-27.703-2.578-52.28,19.906-52.28,47.796 2.84217e-14,26.469 21.531,48 47.999,48z"/>
    <path d="m301.492,258.715c-7.672-4.313-17.367-1.602-21.726,6.023l-13.82,24.218c-4.273,7.492-1.836,17.031 5.508,21.554 9.367,5.766 15.039,15.586 15.281,26.367-0.055,0.523-0.086,1.062-0.102,1.437-0.086,4.305 1.555,7.135 4.563,10.206 3.008,3.078 7.133,3.479 11.437,3.479h30.406c4.289,0 8.398-0.386 11.406-3.44 3.008-3.063 4.664-6.529 4.594-10.818-0.533-32.998-18.751-62.862-47.547-79.026z"/>
    <path d="m292.843,370.947c-2.117-3.727-5.641-6.437-9.781-7.539-4.125-1.086-8.547-0.492-12.234,1.672-9.766,5.758-20.648,6.117-30.89,0.695-7.664-4.047-17.101-1.273-21.375,6.219l-15.164,26.586c-4.352,7.633-1.742,17.336 5.844,21.758 14.234,8.281 30.398,12.664 46.757,12.664 16.367,0 32.539-4.383 46.757-12.664 7.586-4.422 10.195-14.125 5.844-21.75l-15.758-27.641z"/>
    <path d="m218.29,348.521c3.008-3.07 4.648-6.568 4.563-10.872-0.016-0.359-0.055-0.565-0.102-1.081 0.258-11.195 6.555-21.357 16.562-26.911 3.742-2.07 6.492-5.479 7.648-9.596 1.156-4.117 0.609-8.482-1.508-12.2l-13.211-23.143c-4.352-7.625-14.039-10.325-21.726-6.013-28.804,16.164-47.023,46.708-47.554,79.699-0.07,4.289 1.586,7.091 4.594,10.154 3.008,3.055 7.117,3.443 11.406,3.443h27.89c4.305-0.001 8.43-0.402 11.438-3.48z"/>
  </g>
</svg>
