<svg xmlns="http://www.w3.org/2000/svg" xmlns:xlink="http://www.w3.org/1999/xlink" version="1.1" enable-background="new 0 0 1000 1000" xml:space="preserve" width="1000" height="1000"><rect id="backgroundrect" width="100%" height="100%" x="0" y="0" fill="none" stroke="none"/>
<metadata> Svg Vector Icons : http://www.onlinewebfonts.com/icon </metadata>

<g class="currentLayer" style=""><title>Layer 1</title><g id="svg_1" class="selected" fill-opacity="1" fill="#8fcfa1"><path d="M500,10C229.4,10,10,229.4,10,500s219.4,490,490,490s490-219.4,490-490S770.6,10,500,10z M500,936.3C259,936.3,63.7,741,63.7,500S259,63.7,500,63.7S936.3,259,936.3,500S741,936.3,500,936.3z" id="svg_2" fill="#8fcfa1"/><path d="M808,317.1c-28.3-45.7-125.3-3.1-227.3,60.8l-113.1-57.7l2.7-1.6c5.5-3.2,7.4-10.4,4.2-16c-3.2-5.6-10.3-7.5-15.8-4.3l-15.8,9.2l-111.9-57.1c-11.1-6.5-24.2-3.6-30.6,7.6c-6.4,11.2-1.5,22.3,7.5,33l147.2,173c-61.2,45-113.4,87.4-139.9,109.2c-0.6-0.2-1.1-0.4-1.7-0.6l-97.4-29.8c-12.4-3.8-24.9,3.5-27.8,16.3c0,0,43.5,43.8,59.7,72.1c16.1,28.3,31.6,88.1,31.6,88.1c12.4,3.8,24.9-3.5,27.8-16.3l14.7-63.7c2.6-1.1,5.2-2.3,7.8-3.8C329.9,635.5,861.9,403.9,808,317.1L808,317.1z M640,638.6l6.3-110.1c-38.9,28.3-80.2,55.4-118.8,79.5l58.3,170.5c4.7,14.1,10.3,23.4,23.1,23.4c12.8,0,23.1-10.5,23.1-23.4l6.4-111.9l12.7-7.4c5.5-3.2,7.4-10.4,4.2-16C652.2,637.7,645.5,635.8,640,638.6L640,638.6z" id="svg_3" fill="#8fcfa1"/></g></g></svg>